<?xml version="1.0" encoding="utf-8"?>
<!-- Generator: Adobe Illustrator 27.5.0, SVG Export Plug-In . SVG Version: 6.00 Build 0)  -->
<svg version="1.1" id="Layer_1" xmlns="http://www.w3.org/2000/svg" xmlns:xlink="http://www.w3.org/1999/xlink" x="0px" y="0px"
	 viewBox="0 0 40 40" style="enable-background:new 0 0 40 40;" xml:space="preserve">
<style type="text/css">
	.st0{display:none;}
	.st1{display:inline;}
	.st2{display:inline;fill-rule:evenodd;clip-rule:evenodd;}
	.st3{display:none;fill:#010101;}
	.st4{display:inline;fill:#010101;}
	.st5{display:none;fill:#040305;}
	.st6{display:none;fill-rule:evenodd;clip-rule:evenodd;}
	.st7{fill:#FFFFFF;}
</style>
<g class="st0">
	<path class="st1" d="M20,36.5c-0.3,0-0.5-0.1-0.7-0.4L9.5,21.5c-1.2-1.9-1.8-4-1.8-6.2C7.7,8.8,13.2,3.5,20,3.5
		c6.8,0,12.3,5.3,12.3,11.9c0,2.2-0.6,4.3-1.8,6.1l-9.9,14.6C20.5,36.4,20.3,36.5,20,36.5L20,36.5z M20,5.2
		c-5.9,0-10.7,4.6-10.7,10.2c0,1.9,0.5,3.7,1.5,5.3L20,34.2l9.1-13.6c1-1.6,1.5-3.4,1.5-5.2C30.7,9.7,25.9,5.2,20,5.2L20,5.2z"/>
	<path class="st1" d="M20,20.9c-3.2,0-5.7-2.5-5.7-5.5c0-3.1,2.6-5.5,5.7-5.5s5.7,2.5,5.7,5.5C25.7,18.4,23.2,20.9,20,20.9L20,20.9z
		 M20,11.5c-2.2,0-4.1,1.7-4.1,3.9s1.8,3.9,4.1,3.9s4.1-1.7,4.1-3.9C24.1,13.2,22.2,11.5,20,11.5L20,11.5z"/>
</g>
<path class="st0" d="M36.7,34.3L26.1,23.6c3.9-4.7,3.7-11.7-0.7-16.1C23.1,5.2,20.1,4,16.9,4s-6.2,1.2-8.4,3.5
	c-4.6,4.7-4.6,12.2,0,16.9c2.3,2.3,5.2,3.5,8.4,3.5c2.9,0,5.6-1,7.7-2.9l10.6,10.7c0.2,0.2,0.5,0.3,0.7,0.3s0.5-0.1,0.7-0.3
	C37.1,35.3,37.1,34.7,36.7,34.3z M9.8,23.1c-3.9-4-3.9-10.4,0-14.4c1.9-1.9,4.5-3,7.2-3s5.2,1.1,7.2,3c3.9,4,3.9,10.4,0,14.4
	c-1.9,1.9-4.5,3-7.2,3S11.7,25,9.8,23.1z"/>
<path class="st0" d="M25.4,34.8c-0.1,0-0.1,0-0.2,0l-10.5-2.6L4.1,34.8c-0.1,0-0.1,0-0.2,0c-0.2,0-0.4-0.1-0.5-0.2
	C3.1,34.5,3,34.3,3,34V8.6c0-0.4,0.3-0.7,0.7-0.8l10.8-2.6l0.4,0l10.5,2.6l10.6-2.6c0.1,0,0.1,0,0.2,0c0.2,0,0.4,0.1,0.5,0.2
	C36.9,5.5,37,5.7,37,6v25.4c0,0.4-0.3,0.7-0.7,0.8l-10.8,2.6C25.5,34.8,25.4,34.8,25.4,34.8L25.4,34.8z M15.5,30.7l9,2.2V9.3l-9-2.2
	C15.5,7.1,15.5,30.7,15.5,30.7z M26.2,9.3v23.6l9-2.2V7.1L26.2,9.3z M4.7,9.3v23.6l9-2.2V7.1L4.7,9.3z"/>
<g class="st0">
	<path class="st1" d="M9.7,35C7.1,35,5,32.9,5,30.3c0-2.6,2.1-4.7,4.7-4.7c2.6,0,4.7,2.1,4.7,4.7C14.4,32.9,12.3,35,9.7,35L9.7,35z
		 M9.7,27.4c-1.6,0-2.9,1.3-2.9,2.9c0,1.6,1.3,2.9,2.9,2.9s2.9-1.3,2.9-2.9C12.6,28.7,11.3,27.4,9.7,27.4L9.7,27.4z"/>
	<path class="st1" d="M24.6,35c-0.6,0-1.1-0.5-1.1-1.1c0-9.6-7.8-17.3-17.3-17.3C5.5,16.5,5,16,5,15.4s0.5-1.1,1.1-1.1
		c10.8,0,19.6,8.8,19.6,19.6C25.7,34.5,25.2,35,24.6,35L24.6,35z"/>
	<path class="st1" d="M33.9,35c-0.6,0-1.1-0.5-1.1-1.1c0-14.8-12-26.8-26.8-26.8C5.5,7.2,5,6.7,5,6.1S5.5,5,6.1,5
		C22,5,35,18,35,33.9C35,34.5,34.5,35,33.9,35L33.9,35z"/>
</g>
<g class="st0">
	<path class="st2" d="M20,29.6c-6.9,0-13.4-3.7-17-9.6c3.6-5.9,10.1-9.6,17-9.6c6.9,0,13.4,3.7,17,9.6C33.4,25.9,26.9,29.6,20,29.6
		L20,29.6z M20,12.3c-5.8,0-11.3,2.8-14.7,7.6L5.2,20l0.1,0.1c3.4,4.8,8.9,7.6,14.7,7.6c5.8,0,11.3-2.8,14.7-7.6l0.1-0.1l-0.1-0.1
		C31.3,15.1,25.8,12.3,20,12.3L20,12.3z"/>
	<path class="st2" d="M20,13.5c-3.6,0-6.5,2.9-6.5,6.5s2.9,6.5,6.5,6.5c3.6,0,6.5-2.9,6.5-6.5S23.6,13.5,20,13.5z M20,24.9
		c-2.7,0-4.9-2.2-4.9-4.9s2.2-4.9,4.9-4.9c2.7,0,4.9,2.2,4.9,4.9S22.7,24.9,20,24.9z"/>
</g>
<path class="st0" d="M7.3,35.5c-0.4,0-0.7-0.3-0.7-0.7v-7.6c0-0.4,0.3-0.7,0.7-0.7h3.2v-6.3c0-0.3,0.3-0.6,0.6-0.6h8.2v-5.9h-3.2
	c-0.4,0-0.7-0.3-0.7-0.7V5.2c0-0.4,0.3-0.7,0.7-0.7h7.6c0.4,0,0.7,0.3,0.7,0.7v7.6c0,0.4-0.3,0.7-0.7,0.7h-3.2v5.9h8.2
	c0.3,0,0.6,0.3,0.6,0.6v6.3h3.2c0.4,0,0.7,0.3,0.7,0.7v7.6c0,0.4-0.3,0.7-0.7,0.7h-7.6c-0.4,0-0.7-0.3-0.7-0.7v-7.6
	c0-0.4,0.3-0.7,0.7-0.7h3.2v-5.7H11.8v5.7h3.2c0.4,0,0.7,0.3,0.7,0.7v7.6c0,0.4-0.3,0.7-0.7,0.7L7.3,35.5L7.3,35.5z M8.1,34.1h6.1
	v-6.2H8.1V34.1z M25.8,34.1h6.1v-6.2h-6.1V34.1z M16.9,12.1h6.1V5.9h-6.1V12.1z"/>
<g class="st0">
	<path class="st1" d="M11,35c-0.4,0-0.7-0.3-0.8-0.7L8.9,9.9H5.8C5.3,9.9,5,9.6,5,9.2c0-0.4,0.3-0.8,0.8-0.8h3.6l0.2,0l0.1,0h5.2
		V5.8c0-0.4,0.3-0.8,0.8-0.8h8.9c0.4,0,0.8,0.3,0.8,0.8v2.7h5.2l0.2,0l0.1,0h3.6c0.4,0,0.8,0.3,0.8,0.8c0,0.4-0.3,0.8-0.8,0.8h-3.1
		l-1.4,24.3c0,0.4-0.4,0.7-0.8,0.7L11,35L11,35z M11.7,33.5h16.5l1.3-23.5H10.4L11.7,33.5z M16.3,8.4h7.4V6.5h-7.4V8.4z"/>
	<path class="st1" d="M14.3,12.2c-0.2,0-0.4,0.1-0.6,0.3c-0.1,0.2-0.2,0.3-0.2,0.6l1,17.6c0,0.4,0.4,0.7,0.8,0.7v0.2l0-0.2
		c0.4,0,0.7-0.4,0.7-0.8l-1-17.6C15,12.5,14.7,12.2,14.3,12.2L14.3,12.2z"/>
	<path class="st1" d="M25.7,12.2c-0.4,0-0.8,0.3-0.8,0.7l-1,17.6c0,0.4,0.3,0.8,0.7,0.8l0,0.2v-0.2c0.4,0,0.7-0.3,0.8-0.7l1-17.6
		c0-0.2-0.1-0.4-0.2-0.6C26.1,12.3,25.9,12.2,25.7,12.2C25.7,12.2,25.7,12.2,25.7,12.2L25.7,12.2z"/>
	<path class="st1" d="M20,12.2c-0.4,0-0.8,0.3-0.8,0.8v17.6c0,0.4,0.3,0.8,0.8,0.8s0.8-0.3,0.8-0.8V13C20.8,12.5,20.4,12.2,20,12.2
		L20,12.2z"/>
</g>
<g class="st0">
	<path class="st1" d="M8.2,15.8C5.9,15.8,4,17.7,4,20c0,2.3,1.9,4.2,4.2,4.2c2.3,0,4.2-1.9,4.2-4.2C12.5,17.7,10.6,15.8,8.2,15.8z
		 M8.2,22.8c-1.6,0-2.8-1.3-2.8-2.8c0-1.6,1.3-2.8,2.8-2.8c1.6,0,2.8,1.3,2.8,2.8C11.1,21.6,9.8,22.8,8.2,22.8z"/>
	<path class="st1" d="M20,15.8c-2.3,0-4.2,1.9-4.2,4.2s1.9,4.2,4.2,4.2c2.3,0,4.2-1.9,4.2-4.2C24.2,17.7,22.3,15.8,20,15.8z
		 M20,22.8c-1.6,0-2.8-1.3-2.8-2.8c0-1.6,1.3-2.8,2.8-2.8c1.6,0,2.8,1.3,2.8,2.8S21.6,22.8,20,22.8z"/>
	<path class="st1" d="M31.8,15.8c-2.3,0-4.2,1.9-4.2,4.2s1.9,4.2,4.2,4.2c2.3,0,4.2-1.9,4.2-4.2C36,17.7,34.1,15.8,31.8,15.8z
		 M31.8,22.8c-1.6,0-2.8-1.3-2.8-2.8c0-1.6,1.3-2.8,2.8-2.8c1.6,0,2.8,1.3,2.8,2.8C34.6,21.6,33.3,22.8,31.8,22.8z"/>
</g>
<path class="st0" d="M33.1,19.1H9L20.8,7.5c0.3-0.3,0.4-0.9,0-1.2s-0.9-0.3-1.2,0L6.3,19.3C6.1,19.5,6,19.7,6,20c0,0,0,0,0,0
	c0,0,0,0,0,0c0,0.3,0.2,0.6,0.4,0.8l13.3,13c0.2,0.2,0.4,0.2,0.6,0.2c0.2,0,0.5-0.1,0.6-0.3c0.3-0.3,0.3-0.9,0-1.2L9.1,20.9h24.1
	c0.5,0,0.9-0.4,0.9-0.9S33.6,19.1,33.1,19.1z"/>
<path class="st0" d="M34,20c0-0.3-0.2-0.6-0.4-0.8l-13.3-13c-0.3-0.3-0.9-0.3-1.2,0s-0.3,0.9,0,1.2l11.9,11.6H6.9
	C6.4,19.1,6,19.5,6,20s0.4,0.9,0.9,0.9H31L19.2,32.5c-0.3,0.3-0.4,0.9,0,1.2c0.2,0.2,0.4,0.3,0.6,0.3c0.2,0,0.4-0.1,0.6-0.2
	l13.4-13.1C33.9,20.5,34,20.3,34,20C34,20,34,20,34,20C34,20,34,20,34,20z"/>
<path class="st0" d="M33.8,19.6L20.7,6.3C20.5,6.1,20.3,6,20,6c0,0,0,0,0,0s0,0,0,0c-0.3,0-0.6,0.2-0.8,0.4l-13,13.3
	c-0.3,0.3-0.3,0.9,0,1.2c0.2,0.2,0.4,0.2,0.6,0.2c0.2,0,0.5-0.1,0.6-0.3L19.1,9.1v24.1c0,0.5,0.4,0.9,0.9,0.9c0.5,0,0.9-0.4,0.9-0.9
	V9l11.6,11.9c0.3,0.3,0.9,0.4,1.2,0C34.1,20.5,34.1,20,33.8,19.6z"/>
<path class="st0" d="M33.7,19.1c-0.3-0.3-0.9-0.3-1.2,0L20.9,30.9V6.9C20.9,6.4,20.5,6,20,6c-0.5,0-0.9,0.4-0.9,0.9V31L7.5,19.2
	c-0.3-0.3-0.9-0.4-1.2,0s-0.4,0.9,0,1.2l13.1,13.4c0.2,0.2,0.4,0.3,0.6,0.3c0,0,0,0,0,0s0,0,0,0c0.3,0,0.6-0.2,0.8-0.4l13-13.3
	C34.1,20,34.1,19.4,33.7,19.1z"/>
<path class="st0" d="M26.7,34c-0.2,0-0.4-0.1-0.6-0.3L12.7,20.6c-0.2-0.2-0.3-0.4-0.3-0.6c0-0.2,0.1-0.5,0.3-0.6L26,6.3
	c0.3-0.3,0.9-0.3,1.2,0c0.3,0.3,0.3,0.9,0,1.2L14.5,20l12.8,12.5c0.3,0.3,0.4,0.9,0,1.2C27.2,33.9,26.9,34,26.7,34z"/>
<path class="st0" d="M13.4,34c-0.2,0-0.5-0.1-0.6-0.3c-0.3-0.3-0.3-0.9,0-1.2L25.5,20L12.7,7.5c-0.3-0.3-0.4-0.9,0-1.2
	c0.3-0.3,0.9-0.3,1.2,0l13.4,13.2c0.2,0.2,0.3,0.4,0.3,0.6c0,0.2-0.1,0.5-0.3,0.6L14,33.8C13.8,33.9,13.6,34,13.4,34z"/>
<path class="st0" d="M5.9,28.1c-0.2,0-0.5-0.1-0.7-0.3c-0.4-0.4-0.4-1,0-1.3l14.1-14.4c0.2-0.2,0.4-0.3,0.7-0.3s0.5,0.1,0.7,0.3
	l14,14.3c0.4,0.4,0.4,1,0,1.3c-0.4,0.4-1,0.4-1.3,0L20,14.1L6.6,27.9C6.4,28,6.2,28.1,5.9,28.1z"/>
<path class="st0" d="M20,28.1c-0.3,0-0.5-0.1-0.7-0.3l-14-14.3c-0.4-0.4-0.4-1,0-1.3c0.4-0.4,1-0.4,1.3,0L20,25.9l13.4-13.7
	c0.4-0.4,1-0.4,1.3,0c0.4,0.4,0.4,1,0,1.3L20.6,27.9C20.5,28,20.2,28.1,20,28.1z"/>
<g class="st0">
	<path class="st1" d="M6.7,34C6.3,34,6,33.7,6,33.3v-5.8c0-0.4,0.3-0.7,0.7-0.7h5.8c0.4,0,0.7,0.3,0.7,0.7v5.8
		c0,0.4-0.3,0.7-0.7,0.7H6.7z M7.4,32.6h4.4v-4.4H7.4V32.6z"/>
	<path class="st1" d="M17.1,34c-0.4,0-0.7-0.3-0.7-0.7v-5.8c0-0.4,0.3-0.7,0.7-0.7h5.8c0.4,0,0.7,0.3,0.7,0.7v5.8
		c0,0.4-0.3,0.7-0.7,0.7H17.1z M17.8,32.6h4.4v-4.4h-4.4V32.6z"/>
	<path class="st1" d="M27.5,34c-0.4,0-0.7-0.3-0.7-0.7v-5.8c0-0.4,0.3-0.7,0.7-0.7h5.8c0.4,0,0.7,0.3,0.7,0.7v5.8
		c0,0.4-0.3,0.7-0.7,0.7H27.5z M28.2,32.6h4.4v-4.4h-4.4C28.2,28.2,28.2,32.6,28.2,32.6z"/>
	<path class="st1" d="M6.7,23.6c-0.4,0-0.7-0.3-0.7-0.7v-5.8c0-0.4,0.3-0.7,0.7-0.7h5.8c0.4,0,0.7,0.3,0.7,0.7v5.8
		c0,0.4-0.3,0.7-0.7,0.7C12.5,23.6,6.7,23.6,6.7,23.6z M7.4,22.2h4.4v-4.4H7.4V22.2z"/>
	<path class="st1" d="M17.1,23.6c-0.4,0-0.7-0.3-0.7-0.7v-5.8c0-0.4,0.3-0.7,0.7-0.7h5.8c0.4,0,0.7,0.3,0.7,0.7v5.8
		c0,0.4-0.3,0.7-0.7,0.7C22.9,23.6,17.1,23.6,17.1,23.6z M17.8,22.2h4.4v-4.4h-4.4V22.2z"/>
	<path class="st1" d="M27.5,23.6c-0.4,0-0.7-0.3-0.7-0.7v-5.8c0-0.4,0.3-0.7,0.7-0.7h5.8c0.4,0,0.7,0.3,0.7,0.7v5.8
		c0,0.4-0.3,0.7-0.7,0.7C33.3,23.6,27.5,23.6,27.5,23.6z M28.2,22.2h4.4v-4.4h-4.4C28.2,17.8,28.2,22.2,28.2,22.2z"/>
	<path class="st1" d="M6.7,13.2c-0.4,0-0.7-0.3-0.7-0.7V6.7C6,6.3,6.3,6,6.7,6h5.8c0.4,0,0.7,0.3,0.7,0.7v5.8c0,0.4-0.3,0.7-0.7,0.7
		L6.7,13.2L6.7,13.2z M7.4,11.8h4.4V7.4H7.4V11.8z"/>
	<path class="st1" d="M17.1,13.2c-0.4,0-0.7-0.3-0.7-0.7V6.7c0-0.4,0.3-0.7,0.7-0.7h5.8c0.4,0,0.7,0.3,0.7,0.7v5.8
		c0,0.4-0.3,0.7-0.7,0.7H17.1z M17.8,11.8h4.4V7.4h-4.4V11.8z"/>
	<path class="st1" d="M27.5,13.2c-0.4,0-0.7-0.3-0.7-0.7V6.7c0-0.4,0.3-0.7,0.7-0.7h5.8C33.7,6,34,6.3,34,6.7v5.8
		c0,0.4-0.3,0.7-0.7,0.7H27.5z M28.2,11.8h4.4V7.4h-4.4C28.2,7.4,28.2,11.8,28.2,11.8z"/>
</g>
<g class="st0">
	<path class="st1" d="M16.2,8h16.9C33.6,8,34,7.6,34,7.2c0-0.5-0.4-0.8-0.8-0.8H16.2c-0.5,0-0.8,0.4-0.8,0.8C15.4,7.6,15.8,8,16.2,8
		z"/>
	<path class="st1" d="M33.2,11.4H16.2c-0.5,0-0.8,0.4-0.8,0.8s0.4,0.8,0.8,0.8h16.9c0.5,0,0.8-0.4,0.8-0.8S33.6,11.4,33.2,11.4z"/>
	<path class="st1" d="M33.2,16.7H16.2c-0.5,0-0.8,0.4-0.8,0.8s0.4,0.8,0.8,0.8h16.9c0.5,0,0.8-0.4,0.8-0.8S33.6,16.7,33.2,16.7z"/>
	<path class="st1" d="M33.2,21.7H16.2c-0.5,0-0.8,0.4-0.8,0.8s0.4,0.8,0.8,0.8h16.9c0.5,0,0.8-0.4,0.8-0.8S33.6,21.7,33.2,21.7z"/>
	<path class="st1" d="M33.2,27H16.2c-0.5,0-0.8,0.4-0.8,0.8c0,0.5,0.4,0.8,0.8,0.8h16.9c0.5,0,0.8-0.4,0.8-0.8
		C34,27.4,33.6,27,33.2,27z"/>
	<path class="st1" d="M33.2,32H16.2c-0.5,0-0.8,0.4-0.8,0.8c0,0.5,0.4,0.8,0.8,0.8h16.9c0.5,0,0.8-0.4,0.8-0.8
		C34,32.4,33.6,32,33.2,32z"/>
	<path class="st1" d="M6.7,33.5c-0.4,0-0.7-0.3-0.7-0.7v-5c0-0.4,0.3-0.7,0.7-0.7h5c0.4,0,0.7,0.3,0.7,0.7v5c0,0.4-0.3,0.7-0.7,0.7
		C11.7,33.5,6.7,33.5,6.7,33.5z M7.4,32.1H11v-3.5H7.4V32.1z"/>
	<path class="st1" d="M6.7,23.2c-0.4,0-0.7-0.3-0.7-0.7v-5c0-0.4,0.3-0.7,0.7-0.7h5c0.4,0,0.7,0.3,0.7,0.7v5c0,0.4-0.3,0.7-0.7,0.7
		L6.7,23.2L6.7,23.2z M7.4,21.8H11v-3.5H7.4V21.8z"/>
	<path class="st1" d="M6.7,12.9c-0.4,0-0.7-0.3-0.7-0.7v-5c0-0.4,0.3-0.7,0.7-0.7h5c0.4,0,0.7,0.3,0.7,0.7v5c0,0.4-0.3,0.7-0.7,0.7
		L6.7,12.9L6.7,12.9z M7.4,11.4H11V7.9H7.4V11.4z"/>
</g>
<g class="st0">
	<path class="st1" d="M34.1,10.6H5.9C5.4,10.6,5,10.2,5,9.7c0-0.5,0.4-0.9,0.9-0.9h28.1c0.5,0,0.9,0.4,0.9,0.9
		C35,10.2,34.6,10.6,34.1,10.6"/>
	<path class="st1" d="M34.1,20.9H5.9C5.4,20.9,5,20.5,5,20c0-0.5,0.4-0.9,0.9-0.9h28.1c0.5,0,0.9,0.4,0.9,0.9
		C35,20.5,34.6,20.9,34.1,20.9"/>
	<path class="st1" d="M34.1,31.2H5.9c-0.5,0-0.9-0.4-0.9-0.9c0-0.5,0.4-0.9,0.9-0.9h28.1c0.5,0,0.9,0.4,0.9,0.9
		C35,30.8,34.6,31.2,34.1,31.2"/>
	<path class="st1" d="M34.1,20.9H5.9C5.4,20.9,5,20.5,5,20c0-0.5,0.4-0.9,0.9-0.9h28.1c0.5,0,0.9,0.4,0.9,0.9
		C35,20.5,34.6,20.9,34.1,20.9"/>
</g>
<path class="st0" d="M21.4,20L33.2,8.2c0.4-0.4,0.4-1,0-1.4c-0.4-0.4-1-0.4-1.4,0L20,18.6L8.2,6.8c-0.4-0.4-1-0.4-1.4,0
	c-0.4,0.4-0.4,1,0,1.4L18.6,20L6.8,31.8c-0.4,0.4-0.4,1,0,1.4c0.2,0.2,0.5,0.3,0.7,0.3c0.3,0,0.5-0.1,0.7-0.3L20,21.4l11.8,11.8
	c0.2,0.2,0.5,0.3,0.7,0.3s0.5-0.1,0.7-0.3c0.4-0.4,0.4-1,0-1.4L21.4,20z"/>
<path class="st0" d="M9.4,35c-0.4,0-0.8-0.3-0.8-0.7V5.8C8.7,5.3,9,5,9.4,5h14.7c0.2,0,0.4,0.1,0.5,0.2l6.4,6.5
	c0.1,0.1,0.2,0.3,0.2,0.5v22c0,0.4-0.3,0.7-0.8,0.7H9.4z M10.2,33.5h19.7V13h-5.7c-0.4,0-0.8-0.3-0.8-0.8V6.5H10.2V33.5z M24.9,11.5
	h3.9l-3.9-3.9V11.5z"/>
<g class="st0">
	<path class="st1" d="M13,17.3c-0.5,0-0.9,0.4-0.9,0.9S12.5,19,13,19h13.5c0.5,0,0.9-0.4,0.9-0.9s-0.4-0.9-0.9-0.9H13L13,17.3z"/>
	<path class="st1" d="M9.4,35c-0.4,0-0.8-0.3-0.8-0.7V5.8C8.7,5.3,9,5,9.4,5h14.7c0.2,0,0.4,0.1,0.5,0.2l6.4,6.5
		c0.1,0.1,0.2,0.3,0.2,0.5v22c0,0.4-0.3,0.7-0.8,0.7L9.4,35L9.4,35z M10.2,33.5h19.7V13h-5.7c-0.4,0-0.8-0.3-0.8-0.8V6.5H10.2V33.5z
		 M24.9,11.5h3.9l-3.9-3.9V11.5z"/>
	<path class="st1" d="M13,21.2c-0.5,0-0.9,0.4-0.9,0.9s0.4,0.9,0.9,0.9h13.5c0.5,0,0.9-0.4,0.9-0.9s-0.4-0.9-0.9-0.9H13L13,21.2z"/>
	<path class="st1" d="M13,25.1c-0.5,0-0.9,0.4-0.9,0.9c0,0.5,0.4,0.9,0.9,0.9h13.5c0.5,0,0.9-0.4,0.9-0.9c0-0.5-0.4-0.9-0.9-0.9H13
		L13,25.1z"/>
</g>
<g class="st0">
	<path class="st1" d="M14.8,16.2c0,0.5,0.4,0.8,0.8,0.8h12.6c0.4,0,0.8-0.4,0.8-0.8c0-0.5-0.4-0.8-0.8-0.8H15.6
		C15.1,15.4,14.8,15.8,14.8,16.2z"/>
	<path class="st1" d="M32.5,10.2l-6-6C26.3,4.1,26.1,4,26,4H12.3c-0.4,0-0.7,0.3-0.7,0.7v26.5c0,0.4,0.3,0.7,0.7,0.7H27v2.7H8.7V9.5
		h2.8V8.1H8c-0.4,0-0.7,0.3-0.7,0.7v26.5C7.3,35.7,7.6,36,8,36h19.7c0.4,0,0.7-0.3,0.7-0.7v-3.4H32c0.4,0,0.7-0.3,0.7-0.7V10.7
		C32.7,10.5,32.6,10.4,32.5,10.2z M26.7,6.4l3.6,3.6h-3.6C26.7,10,26.7,6.4,26.7,6.4z M31.3,30.5H13V5.4h12.3v5.3
		c0,0.4,0.3,0.7,0.7,0.7h5.3L31.3,30.5L31.3,30.5z"/>
	<path class="st1" d="M28.2,19H15.6c-0.4,0-0.8,0.4-0.8,0.8c0,0.5,0.4,0.8,0.8,0.8h12.6c0.4,0,0.8-0.4,0.8-0.8
		C29,19.4,28.6,19,28.2,19z"/>
	<path class="st1" d="M28.2,22.7H15.6c-0.4,0-0.8,0.4-0.8,0.8s0.4,0.8,0.8,0.8h12.6c0.4,0,0.8-0.4,0.8-0.8S28.6,22.7,28.2,22.7z"/>
	<path class="st1" d="M11.5,19.5h-0.2c-0.4,0-0.8,0.4-0.8,0.8c0,0.5,0.4,0.8,0.8,0.8h0.2V19.5z"/>
	<path class="st1" d="M11.5,23.1h-0.2c-0.4,0-0.8,0.4-0.8,0.8c0,0.5,0.4,0.8,0.8,0.8h0.2V23.1z"/>
	<path class="st1" d="M10.5,27.6c0,0.5,0.4,0.8,0.8,0.8h0.2v-1.6h-0.2C10.9,26.8,10.5,27.1,10.5,27.6z"/>
</g>
<path class="st0" d="M35.8,14.6c-0.1-0.2-0.4-0.3-0.6-0.3H33V8.4c0-0.4-0.3-0.8-0.8-0.8H7.8C7.4,7.6,7,8,7,8.4v3.3H4.8
	c-0.2,0-0.4,0.1-0.6,0.3C4,12.1,4,12.3,4,12.5l3,19.2c0.1,0.4,0.4,0.6,0.8,0.6h24.4c0.4,0,0.7-0.3,0.8-0.6l3-16.5
	C36,15,36,14.8,35.8,14.6z M8.6,9.1h22.9v5.2h-15l-3.6-2.5c-0.1-0.1-0.3-0.1-0.4-0.1H8.6C8.6,11.7,8.6,9.1,8.6,9.1z M31.6,30.9H8.5
	L5.7,13.2h6.5l3.6,2.5c0.1,0.1,0.3,0.1,0.4,0.1h18.1L31.6,30.9z"/>
<path class="st0" d="M8.9,35c-1.1,0-2-0.4-2.8-1.2C5.4,33.1,5,32.1,5,31.1s0.4-2,1.2-2.8l12.5-12.5l-0.9-4c-0.1-0.3,0-0.6,0.2-0.8
	l5.7-5.7C23.9,5.1,24.1,5,24.3,5c0.1,0,0.1,0,0.2,0l4.3,1.2c0.3,0.1,0.5,0.3,0.6,0.6c0.1,0.3,0,0.6-0.2,0.8l-4.3,4.3l0.6,2.5
	l2.6,0.9l4.4-4.3c0.2-0.1,0.3-0.2,0.6-0.2c0.1,0,0.1,0,0.2,0c0.3,0.1,0.5,0.3,0.6,0.6l1.2,4.3c0.1,0.3,0,0.6-0.2,0.8L29,22
	c-0.1,0.1-0.3,0.2-0.6,0.2c-0.1,0-0.1,0-0.2,0l-3.7-1l-2.3,2.1L11.7,33.8C11,34.6,10,35,8.9,35L8.9,35z M19.4,11.8l1,3.9
	c0.1,0.3,0,0.6-0.2,0.8l-13,13c-0.4,0.4-0.7,1-0.7,1.7c0,0.6,0.2,1.2,0.7,1.7c0.4,0.4,1,0.7,1.7,0.7c0.6,0,1.2-0.2,1.7-0.7l13-13
	c0.1-0.1,0.4-0.2,0.6-0.2c0.1,0,0.1,0,0.2,0l3.7,1l5.1-4.9l-0.4-2.1l-0.2-0.6L29,16.6c-0.1,0.1-0.3,0.2-0.6,0.2c-0.1,0-0.1,0-0.2,0
	l-3.5-0.9c-0.3-0.1-0.5-0.3-0.6-0.6l-0.9-3.5c-0.1-0.3,0-0.6,0.2-0.8l3.7-3.7l-2.5-0.7L19.4,11.8z"/>
<path class="st0" d="M35.7,18.2l-15.2-11C20.3,7.1,20.2,7,20,7s-0.3,0.1-0.5,0.2l-6.7,4.9v-1.9c0-0.5-0.4-1-0.8-1H8.3
	c-0.5,0-0.8,0.4-0.8,1v5.7l-3.2,2.3C4,18.5,3.9,19,4.2,19.4c0.2,0.2,0.4,0.3,0.7,0.3c0.2,0,0.3-0.1,0.5-0.2l2.3-1.7v14.3
	C7.6,32.6,8,33,8.4,33h8.2c0.4,0,0.8-0.4,0.8-0.8v-9.7h5.2v9.7c0,0.4,0.4,0.8,0.8,0.8h8.2c0.4,0,0.8-0.4,0.8-0.8V17.9l2.3,1.7
	c0.1,0.1,0.3,0.2,0.5,0.2c0.3,0,0.5-0.1,0.7-0.3C36.1,19,36,18.5,35.7,18.2z M9.2,11.2h2v2.1l-2,1.4V11.2z M30.8,31.3h-6.6v-9.7
	c0-0.4-0.4-0.8-0.8-0.8h-6.8c-0.4,0-0.8,0.4-0.8,0.8v9.7H9.2V16.7L20,8.9l10.8,7.8V31.3z"/>
<g class="st0">
	<path class="st1" d="M9.2,36c-0.4,0-0.8-0.3-0.8-0.8c0-0.4,0.3-0.8,0.8-0.8h2V10.2l-0.1,0C10.5,10,9.9,9.6,9.5,9.1
		C9,8.5,8.8,7.9,8.8,7.1c0-0.9,0.3-1.6,0.9-2.2C10.3,4.3,11.1,4,12,4c0.9,0,1.6,0.3,2.3,0.9c0.6,0.6,0.9,1.4,0.9,2.2
		c0,0.7-0.2,1.4-0.7,1.9c-0.4,0.6-1,1-1.7,1.1l-0.1,0v1l10.4,2.6c0.4,0.1,0.6,0.4,0.6,0.8v2L33,19c0.4,0.1,0.5,0.3,0.6,0.7
		c0,0.4-0.1,0.6-0.4,0.8l-9.9,4.8c-0.1,0.1-0.2,0.1-0.3,0.1c-0.1,0-0.3,0-0.4-0.1c-0.2-0.1-0.3-0.4-0.3-0.7V23l-9.4,3.4v8.1h2
		c0.4,0,0.8,0.3,0.8,0.8c0,0.4-0.3,0.8-0.8,0.8H9.2z M12.7,24.7l9.4-3.4v-6.2l-9.4-2.3V24.7z M23.7,23.3l6.9-3.3l-6.9-1.9V23.3z
		 M12,5.5c-0.4,0-0.8,0.2-1.1,0.5c-0.6,0.6-0.6,1.7,0,2.3c0.3,0.3,0.7,0.5,1.1,0.5c0.4,0,0.8-0.2,1.2-0.5c0.3-0.3,0.5-0.7,0.5-1.2
		c0-0.4-0.2-0.8-0.5-1.1C12.8,5.7,12.4,5.5,12,5.5L12,5.5z"/>
</g>
<path class="st0" d="M33.3,12.1h-6.9V11c0-2-1.6-3.6-3.6-3.6h-5.7c-2,0-3.6,1.6-3.6,3.6v1.1H6.7c-1.5,0-2.7,1.2-2.7,2.7v5.7V30
	c0,1.5,1.2,2.7,2.7,2.7h26.7c1.5,0,2.7-1.2,2.7-2.7v-9.5v-5.7C36,13.3,34.8,12.1,33.3,12.1z M15,11c0-1.2,0.9-2.1,2.1-2.1h5.7
	C24,8.9,25,9.8,25,11v1.1H15C15,12.1,15,11,15,11z M5.5,14.8c0-0.6,0.5-1.1,1.1-1.1h26.7c0.6,0,1.1,0.5,1.1,1.1v5h-29V14.8z
	 M24.8,21.2h3.8v2.2h-3.8V21.2z M11.4,21.2h3.8v2.2h-3.8V21.2z M33.3,31.1H6.7c-0.6,0-1.1-0.5-1.1-1.1v-8.8h4.4v2.9
	c0,0.4,0.3,0.8,0.8,0.8H16c0.4,0,0.8-0.3,0.8-0.8v-2.9h6.5v2.9c0,0.4,0.3,0.8,0.8,0.8h5.3c0.4,0,0.8-0.3,0.8-0.8v-2.9h4.4V30
	C34.5,30.6,34,31.1,33.3,31.1z"/>
<path class="st0" d="M25,14.4V9.1c1.9-0.5,3.3-2.3,3.3-4.4C28.4,4.3,28,4,27.6,4H12.4c-0.4,0-0.8,0.3-0.8,0.8c0,2.1,1.4,3.8,3.3,4.4
	v5.3c-1.9,0.5-3.3,2.3-3.3,4.4v1.9c0,0.4,0.3,0.8,0.8,0.8h5c0.1,3.2,0.4,6.6,0.8,9.5c0.2,1.3,0.4,2.5,0.6,3.3C19,35.1,19.2,36,20,36
	c0.8,0,1-0.9,1.2-1.8c0.2-0.8,0.4-1.9,0.6-3.3c0.4-2.9,0.7-6.3,0.8-9.5h5c0.4,0,0.8-0.3,0.8-0.8v-1.9C28.4,16.8,27,15,25,14.4z
	 M20,32.4c-0.4-2.4-0.9-6.4-1.1-11h2.1C20.9,26,20.4,30,20,32.4z M26.8,20h-5h-3.7h-5v-1.1c0-1.5,1.1-2.8,2.7-3
	c0.4,0,0.7-0.4,0.7-0.8V8.5c0-0.4-0.3-0.7-0.7-0.8c-1.3-0.2-2.3-1.1-2.6-2.3h13.5c-0.3,1.2-1.3,2.1-2.6,2.3c-0.4,0-0.7,0.4-0.7,0.8
	V15c0,0.4,0.3,0.7,0.7,0.8c1.5,0.2,2.7,1.5,2.7,3L26.8,20L26.8,20z"/>
<g class="st0">
	<path class="st1" d="M27.8,32.2L34,19.1V7.8H21.2v12h4.9l-4.9,12.5H27.8z M23.1,17.9V9.7h8.9v9l-5.5,11.7H24l4.9-12.5L23.1,17.9
		L23.1,17.9z"/>
	<path class="st1" d="M12.5,32.2l6.2-13.2V7.8H6v12h4.9L6,32.2H12.5z M7.9,17.9V9.7h8.9v9l-5.5,11.7H8.8l4.9-12.5L7.9,17.9L7.9,17.9
		z"/>
</g>
<g class="st0">
	<path class="st1" d="M23.8,28.1c-0.4,0-0.8,0.3-0.8,0.8v5.2H8.3V5.9h14.8v5.2c0,0.4,0.3,0.8,0.8,0.8s0.8-0.3,0.8-0.8v-6
		c0-0.4-0.3-0.8-0.8-0.8H7.5c-0.4,0-0.8,0.3-0.8,0.8v29.8c0,0.4,0.3,0.8,0.8,0.8h16.3c0.4,0,0.8-0.3,0.8-0.8v-6
		C24.6,28.5,24.2,28.1,23.8,28.1z"/>
	<path class="st1" d="M34.2,24.2l-2.5-8.7c-0.1-0.3-0.3-0.5-0.6-0.5c-0.3-0.1-0.6,0.1-0.7,0.3l-1,1.5c-1.6-1.1-3.6-1.7-5.7-1.8
		c0,0,0,0-0.1,0c-4.1,0.2-6.8,1.5-10.6,5.2c-0.3,0.2-0.3,0.6-0.1,0.9c0.2,0.3,0.6,0.4,0.9,0.3c1.6-0.6,3.3-0.9,5-0.9
		c1.8,0,4.3,0.4,6.3,2.3l-0.9,1.3c-0.2,0.2-0.2,0.5-0.1,0.8s0.4,0.4,0.7,0.4h8.7l0,0c0.4,0,0.8-0.3,0.8-0.8
		C34.2,24.4,34.2,24.3,34.2,24.2z M26.2,23.8l0.5-0.7c0.2-0.3,0.2-0.7-0.1-1c-2-2.1-4.7-3.1-7.9-3.1c-0.8,0-1.5,0.1-2.3,0.2
		c2.4-1.8,4.4-2.5,7.2-2.7c2,0.1,3.9,0.7,5.4,1.9c0.2,0.1,0.4,0.2,0.6,0.2c0.2,0,0.4-0.1,0.5-0.3l0.6-0.8l1.8,6.3
		C32.5,23.8,26.2,23.8,26.2,23.8z"/>
</g>
<path class="st0" d="M11.1,35.5c-0.7,0-1.3-0.3-1.7-0.7l-4.1-4.1c-0.5-0.5-0.7-1.1-0.7-1.7c0-0.7,0.3-1.3,0.7-1.7l8.4-8.4
	c0.5-0.5,1.1-0.7,1.7-0.7c0.7,0,1.3,0.3,1.7,0.7l1.5,1.5l1.8-1.8L18.8,17c-0.5-0.5-0.7-1.1-0.7-1.7s0.3-1.3,0.7-1.7l8.4-8.4
	c0.5-0.5,1.1-0.7,1.7-0.7s1.3,0.3,1.7,0.7l4.1,4.1c0.5,0.5,0.7,1.1,0.7,1.7s-0.3,1.3-0.7,1.7l-8.4,8.4c-0.5,0.5-1.1,0.7-1.7,0.7
	c-0.7,0-1.3-0.3-1.7-0.7l-1.5-1.5l-1.8,1.8l1.5,1.5c0.5,0.5,0.7,1.1,0.7,1.7c0,0.7-0.3,1.3-0.7,1.7l-8.4,8.4
	C12.4,35.2,11.7,35.5,11.1,35.5L11.1,35.5z M15.3,19.7c-0.1,0-0.4,0-0.6,0.2l-8.4,8.4c-0.2,0.2-0.2,0.4-0.2,0.6s0,0.4,0.2,0.6
	l4.1,4.1c0.2,0.2,0.4,0.2,0.6,0.2c0.1,0,0.4,0,0.6-0.2l8.4-8.4c0.2-0.2,0.2-0.4,0.2-0.6c0-0.1,0-0.4-0.2-0.6l-1.5-1.5l-2.5,2.5
	c-0.2,0.2-0.4,0.2-0.6,0.2c-0.2,0-0.4-0.1-0.6-0.2c-0.3-0.3-0.3-0.8,0-1.2l2.5-2.5L15.9,20C15.7,19.8,15.4,19.7,15.3,19.7L15.3,19.7
	z M24.7,14.5c0.2,0,0.4,0.1,0.6,0.2c0.2,0.2,0.2,0.4,0.2,0.6s-0.1,0.4-0.2,0.6l-2.6,2.6l1.5,1.5c0.2,0.2,0.4,0.2,0.6,0.2
	c0.1,0,0.4,0,0.6-0.2l8.4-8.4c0.2-0.2,0.2-0.4,0.2-0.6c0-0.1,0-0.4-0.2-0.6l-4.1-4.1c-0.2-0.2-0.4-0.2-0.6-0.2s-0.4,0-0.6,0.2
	L20,14.7c-0.2,0.2-0.2,0.4-0.2,0.6s0,0.4,0.2,0.6l1.5,1.5l2.6-2.6C24.2,14.6,24.4,14.5,24.7,14.5L24.7,14.5z"/>
<g class="st0">
	<path class="st2" d="M13.8,29.1c-1,0-1.9-0.8-1.9-1.9l-0.2-1.5l-0.3-1.9c-0.1-0.2-0.1-0.3-0.1-0.5l-2-13.7L9,7.7H5.4
		c-0.5,0-0.9-0.4-0.9-0.9c0-0.5,0.4-0.9,0.9-0.9h3.9c0.1,0,0.1,0,0.2,0l0,0l0.1,0c0.1,0,0.2,0,0.2,0c0.5,0,0.9,0.4,0.9,0.9l0.2,1.1
		l0.1,0c0.1,0,0.2,0,0.3,0h22.4c1,0,1.9,0.8,1.9,1.9v11.7c0,1-0.8,1.9-1.9,1.9c-0.1,0-9.1,0.1-14.5,0.6c-2.6,0.3-5.1,1-5.8,1.2
		l-0.1,0l0.3,2.2h19c0.5,0,0.9,0.4,0.9,0.9s-0.4,0.9-0.9,0.9H13.8z M12.4,9.6c-0.6,0-1.1,0.5-1.1,1.1L13,22.1c0,0.6,0.5,1.1,1.1,1.1
		c0.1,0,1.6-0.7,4.5-1c4.8-0.6,14-0.6,14.1-0.6c0.6,0,1.1-0.5,1.1-1.1v-9.8c0-0.6-0.5-1.1-1.1-1.1C32.7,9.6,12.4,9.6,12.4,9.6z"/>
	<path class="st2" d="M15.9,30.2c-1.1,0-1.9,0.9-1.9,1.9c0,1.1,0.9,1.9,1.9,1.9c1.1,0,2-0.9,2-1.9C17.9,31.1,17,30.2,15.9,30.2z"/>
	<circle class="st2" cx="29.6" cy="32.1" r="1.9"/>
</g>
<path class="st3" d="M32,10.5c0-0.9-0.7-2.3-3.8-3.3C26,6.4,23.1,6,20,6c-3.1,0-6,0.4-8.2,1.1C8.7,8.2,8,9.5,8,10.5c0,0,0,0,0,0
	c0,0,0,0,0,0v6.3c0,0,0,0,0,0c0,0,0,0,0,0v6.3c0,0,0,0,0,0c0,0,0,0,0,0v6.3c0,0.9,0.7,2.3,3.8,3.3C14,33.6,16.9,34,20,34
	c3.1,0,6-0.4,8.2-1.1c3.1-1,3.8-2.4,3.8-3.3v-6.3c0,0,0,0,0,0c0,0,0,0,0,0v-6.3c0,0,0,0,0,0c0,0,0,0,0,0V10.5
	C32,10.5,32,10.5,32,10.5C32,10.5,32,10.5,32,10.5z M30.5,29.5c0,1.2-4.1,3-10.5,3s-10.5-1.8-10.5-3v-4.1c0.6,0.4,1.3,0.7,2.3,1.1
	c2.2,0.7,5.1,1.1,8.2,1.1c3.1,0,6-0.4,8.2-1.1c1-0.3,1.8-0.7,2.3-1.1C30.5,25.5,30.5,29.5,30.5,29.5z M30.5,23.2c0,1.2-4.1,3-10.5,3
	s-10.5-1.8-10.5-3v-4.1c0.6,0.4,1.3,0.7,2.3,1.1c2.2,0.7,5.1,1.1,8.2,1.1c3.1,0,6-0.4,8.2-1.1c1-0.3,1.8-0.7,2.3-1.1
	C30.5,19.1,30.5,23.2,30.5,23.2z M30.5,16.8c0,1.2-4.1,3-10.5,3S9.5,18,9.5,16.8v-4.1c0.6,0.4,1.3,0.7,2.3,1.1
	C14,14.6,16.9,15,20,15c3.1,0,6-0.4,8.2-1.1c1-0.3,1.8-0.7,2.3-1.1C30.5,12.8,30.5,16.8,30.5,16.8z M20,13.4c-6.4,0-10.5-1.8-10.5-3
	c0-1.2,4.1-3,10.5-3s10.5,1.8,10.5,3C30.5,11.7,26.4,13.4,20,13.4z"/>
<path class="st3" d="M31,10V6.7C31,6.3,30.6,6,30.2,6H9.8C9.4,6,9,6.3,9,6.7V10c0,0.4,0.4,0.7,0.8,0.7H11v1c0,3.4,2.3,6.5,5.9,8.1
	v0.6c-3.6,1.5-5.9,4.6-5.9,8v1H9.8C9.4,29.3,9,29.6,9,30v3.3C9,33.7,9.4,34,9.8,34h20.4c0.4,0,0.8-0.3,0.8-0.7V30
	c0-0.4-0.4-0.7-0.8-0.7H29v-1c0-3.4-2.3-6.5-5.9-8.1v-0.6c3.6-1.5,5.9-4.6,5.9-8.1v-1h1.2C30.6,10.7,31,10.4,31,10z M28.6,30.7h0.9
	v2H10.6v-2h1.2h16.5H28.6z M27.2,13.6c-0.1,0.6-0.6,1.3-0.6,1.3c-0.9,1.7-2.5,3-4.6,3.8c-0.3,0.1-0.5,0.3-0.5,0.6v1.4
	c0,0.3,0.2,0.5,0.5,0.6c3.3,1.2,5.4,4,5.4,7v1h-0.7h-2h-9.5h-2h-0.7v-1c0-3,2.1-5.8,5.4-7c0.3-0.1,0.5-0.3,0.5-0.6v-1.4
	c0-0.3-0.2-0.5-0.5-0.6c-2.1-0.8-3.7-2.1-4.6-3.8c-0.3-0.6-0.6-1.3-0.6-1.3c-0.2-0.6-0.3-1.3-0.3-1.9v-1h14.9v1
	C27.5,12.3,27.4,13,27.2,13.6z M29.4,9.3h-1.2c0,0-0.1,0-0.1,0H11.9c0,0-0.1,0-0.1,0h-1.2v-2h18.9L29.4,9.3L29.4,9.3z"/>
<path class="st3" d="M29.1,30.9H9.9c-3.8,0-6.9-3.1-6.9-6.9c0-3.6,2.8-6.6,6.4-6.9c0.8-2.4,3-4.1,5.6-4.1c0.4,0,0.7,0,1.1,0.1
	c1.4-2.6,4-4.2,7-4.2c3.7,0,6.9,2.7,7.7,6.3c3.6,0.8,6.3,4,6.3,7.7C37,27.4,33.5,30.9,29.1,30.9z M9.8,18.8c-2.9,0-5.2,2.4-5.2,5.3
	c0,2.9,2.4,5.3,5.3,5.3h19.2c3.5,0,6.3-2.8,6.3-6.3c0-3.1-2.3-5.8-5.5-6.2c-0.4,0-0.7-0.3-0.7-0.7c-0.4-3.1-3.1-5.5-6.2-5.5
	c-2.5,0-4.8,1.5-5.8,3.8c-0.2,0.4-0.6,0.6-1,0.5c-0.5-0.2-0.9-0.2-1.3-0.2c-2,0-3.8,1.4-4.2,3.4c-0.1,0.4-0.4,0.6-0.8,0.6
	C9.9,18.8,9.9,18.8,9.8,18.8z"/>
<g class="st0">
	<path class="st4" d="M29.4,15.7c-0.4,0-0.8,0.3-0.8,0.8v3.9c0,4.7-3.9,8.6-8.6,8.6s-8.6-3.9-8.6-8.6v-3.9c0-0.4-0.4-0.8-0.8-0.8
		c-0.4,0-0.8,0.3-0.8,0.8v3.9c0,5.3,4.1,9.7,9.4,10.1v3.9h-5.5c-0.4,0-0.8,0.3-0.8,0.8s0.4,0.8,0.8,0.8h12.5c0.4,0,0.8-0.3,0.8-0.8
		c0-0.4-0.4-0.8-0.8-0.8h-5.5v-3.9c5.2-0.4,9.4-4.8,9.4-10.1v-3.9C30.1,16.1,29.8,15.7,29.4,15.7z"/>
	<path class="st4" d="M20,27c3.7,0,6.6-3,6.6-6.6v-9.8C26.6,7,23.7,4,20,4s-6.6,3-6.6,6.6v9.8C13.4,24.1,16.3,27,20,27z M14.9,10.6
		c0-2.8,2.3-5.1,5.1-5.1s5.1,2.3,5.1,5.1v9.8c0,2.8-2.3,5.1-5.1,5.1s-5.1-2.3-5.1-5.1C14.9,20.4,14.9,10.6,14.9,10.6z"/>
</g>
<g class="st0">
	<path class="st4" d="M22.6,19.6c1.1-0.8,1.9-2.1,1.9-3.6c0-2.5-2-4.4-4.4-4.4c-2.5,0-4.4,2-4.4,4.4c0,1.5,0.7,2.8,1.9,3.6l-5,14.4
		c-0.1,0.4,0.1,0.8,0.4,0.9c0.1,0,0.2,0,0.2,0c0.3,0,0.6-0.2,0.7-0.5l1-2.9h10.4l1,2.9c0.1,0.3,0.4,0.5,0.7,0.5c0.1,0,0.2,0,0.2,0
		c0.4-0.1,0.6-0.5,0.4-0.9L22.6,19.6z M20,13c1.6,0,3,1.3,3,3c0,1.6-1.3,3-3,3c-1.6,0-3-1.3-3-3C17.1,14.3,18.4,13,20,13z M20,20.4
		c0.4,0,0.9-0.1,1.3-0.2l1.6,4.6h-5.7l1.6-4.6C19.2,20.4,19.6,20.4,20,20.4z M15.4,30.1l1.3-3.8h6.7l1.3,3.8H15.4z"/>
	<path class="st4" d="M14.1,21.6c0.1,0.1,0.3,0.2,0.5,0.2c0.2,0,0.4-0.1,0.5-0.2c0.3-0.3,0.3-0.7,0-1c-1.2-1.2-1.9-2.9-1.9-4.6
		s0.7-3.4,1.9-4.6c0.3-0.3,0.3-0.7,0-1c-0.3-0.3-0.7-0.3-1,0c-1.5,1.5-2.3,3.5-2.3,5.6C11.8,18.1,12.6,20.1,14.1,21.6z"/>
	<path class="st4" d="M12.6,23.2c-1.9-1.9-3-4.5-3-7.2c0-2.7,1.1-5.3,3-7.2c0.3-0.3,0.3-0.7,0-1c-0.3-0.3-0.7-0.3-1,0
		C9.4,10,8.2,12.9,8.2,16s1.2,6,3.4,8.2c0.1,0.1,0.3,0.2,0.5,0.2s0.4-0.1,0.5-0.2C12.9,23.9,12.9,23.4,12.6,23.2z"/>
	<path class="st4" d="M6,16c0-3.7,1.4-7.1,4-9.7c0.3-0.3,0.3-0.7,0-1s-0.7-0.3-1,0C6.1,8.1,4.5,11.9,4.5,16c0,4.1,1.6,7.9,4.5,10.8
		C9.1,26.9,9.3,27,9.5,27s0.4-0.1,0.5-0.2c0.3-0.3,0.3-0.7,0-1C7.4,23.1,6,19.7,6,16z"/>
	<path class="st4" d="M26.8,16c0,1.7-0.7,3.4-1.9,4.6c-0.3,0.3-0.3,0.7,0,1c0.1,0.1,0.3,0.2,0.5,0.2c0.2,0,0.4-0.1,0.5-0.2
		c1.5-1.5,2.3-3.5,2.3-5.6c0-2.1-0.8-4.1-2.3-5.6c-0.3-0.3-0.7-0.3-1,0c-0.3,0.3-0.3,0.7,0,1C26.1,12.6,26.8,14.2,26.8,16z"/>
	<path class="st4" d="M28.4,7.8c-0.3-0.3-0.7-0.3-1,0c-0.3,0.3-0.3,0.7,0,1c1.9,1.9,3,4.5,3,7.2c0,2.7-1.1,5.3-3,7.2
		c-0.3,0.3-0.3,0.7,0,1c0.1,0.1,0.3,0.2,0.5,0.2c0.2,0,0.4-0.1,0.5-0.2c2.2-2.2,3.4-5.1,3.4-8.2C31.8,12.9,30.6,10,28.4,7.8z"/>
	<path class="st4" d="M31,5.2c-0.3-0.3-0.7-0.3-1,0c-0.3,0.3-0.3,0.7,0,1c2.6,2.6,4,6.1,4,9.7c0,3.7-1.4,7.1-4,9.7
		c-0.3,0.3-0.3,0.7,0,1c0.1,0.1,0.3,0.2,0.5,0.2c0.2,0,0.4-0.1,0.5-0.2c2.9-2.9,4.5-6.7,4.5-10.8C35.5,11.9,33.9,8.1,31,5.2z"/>
</g>
<g class="st0">
	<path class="st4" d="M26.2,5c-4.9,0-8.8,3.9-8.8,8.8c0,0.7,0.1,1.4,0.2,2.1L5,28.6V35h7v-3.5h3.5v-3.5h3.5v-3.5h3.1l2-2
		c0.7,0.2,1.4,0.2,2.1,0.2c4.9,0,8.8-3.9,8.8-8.8C35,8.9,31,5,26.2,5z M26.2,20.9c-0.7,0-1.4-0.1-2.1-0.3l-0.5-0.1l-2.2,2.2h-4v3.5
		h-3.5v3.5h-3.5v3.5H6.7v-4.1l12.9-12.9l-0.1-0.5c-0.2-0.7-0.3-1.4-0.3-2.1c0-3.9,3.2-7.1,7.1-7.1c3.9,0,7.1,3.2,7.1,7.1
		C33.3,17.7,30.1,20.9,26.2,20.9z"/>
	<circle class="st4" cx="27.7" cy="12.3" r="1.7"/>
</g>
<path class="st5" d="M5.8,35.5V7.1h6.3V4.5h1.6v2.6h12.4V4.5h1.6v2.6h6.5v28.4H5.8z M32.6,33.9V14.6H7.4v19.3L32.6,33.9L32.6,33.9z
	 M32.6,13V8.7h-4.9v1.7h-1.6V8.7H13.7v1.7h-1.6V8.7H7.4V13C7.4,13,32.6,13,32.6,13z"/>
<path class="st6" d="M22.7,29.2l-7.1,3.5c-0.3,0-0.6-0.2-1-0.8L5,7c0-0.4,0.4-0.7,0.8-0.7l29,15.8c0.1,0.1,0.3,0.6,0.3,0.9
	c0,0.1-0.1,0.2-0.1,0.2l-6.3,3V32c0,0.9-0.7,1.7-1.6,1.7L22.7,29.2z M23.7,28.7l2.3,2.5c0.3,0.3,0.5,0.5,0.7,0.5h0
	c0.1,0,0.3-0.1,0.3-0.4c0-0.1,0-0.3,0-0.6v-3.2l0,0l0-0.1l0-0.1l0,0l0-0.7l0,0c0-0.5,0-1,0-1l0-0.1L19,19.5l-0.3,0.3l6,6.7l0,0
	l0.8,0.9l0.3,0.3L23.7,28.7z M9.1,10c-0.4,0-0.8,0.4-0.8,0.8l7.2,18.9c0.2,0.3,0.5,0.7,1,0.7l6.1-2.9l0.1,0l1.5-0.7L14.6,16
	l13.2,8.9l3.2-1.6c0.1-0.1,0.2-0.2,0.3-0.4c0-0.3-0.1-0.7-0.3-0.9L9.1,10L9.1,10z"/>
<path class="st7" d="M34.3,10H5.7C5.3,10,5,10.3,5,10.7v18.6C5,29.7,5.3,30,5.7,30h28.6c0.4,0,0.7-0.3,0.7-0.7V10.7
	C35,10.3,34.7,10,34.3,10z M6.4,12.3l8.8,7.1l-8.8,8.1V12.3z M20,21.3L7.7,11.4h24.7L20,21.3z M16.4,20.2l3.2,2.5c0,0,0,0,0,0
	c0,0,0,0,0,0c0,0,0,0,0,0c0,0,0,0,0,0c0,0,0,0,0,0c0,0,0,0,0,0c0,0,0,0,0.1,0c0,0,0,0,0,0c0,0,0,0,0.1,0c0,0,0,0,0,0c0,0,0,0,0.1,0
	c0,0,0,0,0,0c0,0,0,0,0.1,0l0,0l0,0c0,0,0,0,0.1,0c0,0,0,0,0,0c0,0,0,0,0.1,0c0,0,0,0,0,0c0,0,0,0,0.1,0c0,0,0,0,0,0c0,0,0,0,0.1,0
	c0,0,0,0,0,0c0,0,0,0,0,0c0,0,0,0,0,0c0,0,0,0,0,0c0,0,0,0,0,0c0,0,0,0,0,0l3.2-2.5l9,8.3H7.3L16.4,20.2z M24.8,19.3l8.8-7.1v15.2
	L24.8,19.3z"/>
</svg>
