<?xml version="1.0" encoding="utf-8"?>

<!DOCTYPE svg PUBLIC "-//W3C//DTD SVG 1.1//EN" "http://www.w3.org/Graphics/SVG/1.1/DTD/svg11.dtd">
<!-- Uploaded to: SVG Repo, www.svgrepo.com, Generator: SVG Repo Mixer Tools -->
<svg height="800px" width="800px" version="1.1" id="_x32_" xmlns="http://www.w3.org/2000/svg" xmlns:xlink="http://www.w3.org/1999/xlink" 
	 viewBox="0 0 512 512"  xml:space="preserve">
<style type="text/css">
	.st0{fill:#000000;}
</style>
<g>
	<path class="st0" d="M361.924,114.899c0.007,0,0.015,0.007,0.023,0.007h0.046L361.924,114.899z"/>
	<path class="st0" d="M492.539,59.454l0.008-0.024c-0.155-0.046-20.926-6.947-38.596-11.304
		c-24.633-6.04-61.035-10.405-98.05-13.421c-36.969-2.993-74.256-4.536-99.896-4.536s-62.926,1.543-99.903,4.536
		c-37.015,3.016-73.41,7.381-98.042,13.429C40.388,52.483,19.6,59.384,19.446,59.43l0.008,0.024C8.04,62.958,0.008,73.394,0,85.428
		c0,0.783,0.039,1.597,0.109,2.426v-0.023l8.118,90.235v0.031c0.652,7.11,4.086,13.414,9.048,17.802
		c4.954,4.404,11.537,7.04,18.608,7.04h80.861c6.97,0,13.476-2.558,18.414-6.861c4.947-4.288,8.429-10.468,9.196-17.477
		l4.094-36.852v-0.023c0.085-0.729,0.396-1.38,1.024-1.978c0.628-0.589,1.489-1.023,2.551-1.108l0.069-0.008
		c0.008,0,4.024-0.348,10.723-0.884c20.066-1.597,64.206-4.784,93.189-4.776c19.291,0,45.405,1.404,66.548,2.822
		c10.576,0.713,19.934,1.427,26.64,1.954c6.7,0.535,10.715,0.884,10.723,0.884l0.07,0.008c1.062,0.085,1.923,0.519,2.551,1.108
		c0.628,0.597,0.938,1.249,1.024,1.978v0.023l4.102,36.868v-0.024c0.76,7.009,4.233,13.196,9.18,17.484
		c4.946,4.31,11.451,6.861,18.422,6.861h80.837c7.071,0,13.662-2.636,18.624-7.04c4.962-4.388,8.405-10.692,9.049-17.802
		l0.007-0.031l8.118-90.235v-0.023c0.07-0.807,0.101-1.598,0.101-2.38C512,73.394,503.96,62.966,492.539,59.454z M488.174,85.715
		l-0.791-0.023l0.791,0.031l-8.117,90.212v-0.024c-0.078,0.822-0.435,1.528-1.14,2.171c-0.706,0.62-1.66,1.039-2.815,1.039h-80.837
		c-1.132,0-2.078-0.403-2.784-1.008c-0.69-0.62-1.046-1.303-1.14-2.109v-0.024l-4.102-36.867v0.023
		c-0.713-6.575-3.83-12.444-8.335-16.693c-4.489-4.257-10.444-7.002-16.956-7.537c-0.683-0.054-65.494-5.737-105.944-5.753
		c-40.458,0.016-105.261,5.699-105.943,5.753c-6.513,0.535-12.468,3.28-16.958,7.537c-4.504,4.249-7.621,10.118-8.335,16.693v-0.023
		l-4.094,36.867c-0.093,0.822-0.449,1.505-1.147,2.133c-0.706,0.605-1.652,1.008-2.784,1.008H35.883
		c-1.132,0-2.078-0.411-2.791-1.032c-0.706-0.643-1.062-1.356-1.148-2.178l0.008,0.024l-8.118-90.242v-0.024l-0.015-0.24
		c0-1.272,0.868-2.699,2.729-3.265l0.178-0.054l0.21-0.07c0,0,1.232-0.412,3.396-1.102c6.482-2.086,21.206-6.683,33.418-9.684
		c22.035-5.45,57.996-9.894,94.274-12.809c36.317-2.946,73.247-4.458,97.98-4.458c24.726,0,61.656,1.512,97.973,4.458
		c36.278,2.915,72.247,7.358,94.282,12.809c8.126,2,17.399,4.714,24.571,6.916c3.59,1.101,6.66,2.07,8.831,2.768
		c2.163,0.69,3.388,1.102,3.396,1.102l0.21,0.07l0.194,0.054c1.861,0.574,2.73,1.993,2.722,3.265L488.174,85.715v-0.023V85.715z"/>
	<path class="st0" d="M150.014,114.906h0.047c0.008,0,0.015-0.007,0.023-0.007L150.014,114.906z"/>
	<path class="st0" d="M370.297,224.882c-6.652-16.872-10.452-31.472-12.568-41.761c-1.054-5.14-1.69-9.196-2.062-11.924
		c-0.187-1.357-0.302-2.388-0.372-3.047l-0.07-0.706l-0.015-0.147l-0.846-10.987h-11.026h-59.547v39.698h-55.577V156.31h-70.572
		l-0.853,10.994h0.008c-0.062,0.783-2.271,25.726-15.716,59.166c-13.475,33.518-38.078,75.465-83.016,111.053l-4.521,3.574v5.761
		c0,27.788,0,111.812,0,111.812c0.016,12.801,10.359,23.144,23.16,23.16h358.598c12.801-0.016,23.145-10.358,23.16-23.16
		c0,0,0-84.024,0-111.812v-5.761l-4.52-3.574C408.29,301.37,383.626,258.656,370.297,224.882z M179.066,180.128h25.33v39.698
		h103.214v-39.698h25.331c1.899,11.304,6.117,30.471,15.196,53.499c14.011,35.541,39.799,80.372,86.506,118.845
		c0,30.316,0,98.422,0,105.54H77.364c0-7.118,0-75.224,0-105.54c46.707-38.473,72.495-83.304,86.505-118.845
		C172.941,210.6,177.159,191.433,179.066,180.128z"/>
	<path class="st0" d="M256.004,426.378c43.792-0.015,79.38-35.604,79.396-79.396c-0.015-43.791-35.604-79.38-79.396-79.395
		c-43.791,0.016-79.388,35.604-79.396,79.395C176.616,390.774,212.212,426.363,256.004,426.378z M256.004,280.823
		c18.252,0,34.752,7.396,46.77,19.399c11.986,12.01,19.391,28.51,19.391,46.761c0,18.252-7.404,34.752-19.391,46.769
		c-12.018,11.987-28.517,19.392-46.77,19.392c-18.252,0-34.75-7.404-46.769-19.392c-11.987-12.017-19.392-28.517-19.392-46.769
		c0-18.251,7.404-34.75,19.392-46.761C221.253,288.219,237.752,280.823,256.004,280.823z"/>
	<path class="st0" d="M256.004,386.681c21.92,0,39.698-17.771,39.698-39.698c0-21.918-17.778-39.698-39.698-39.698
		c-21.919,0-39.698,17.779-39.698,39.698C216.306,368.91,234.085,386.681,256.004,386.681z"/>
</g>
</svg>